<svg width="100" height="100" viewBox="0 0 100 100" fill="none" xmlns="http://www.w3.org/2000/svg">
  <defs>
    <radialGradient id="d-eye" cx="50%" cy="50%" r="50%">
      <stop offset="0%" stop-color="#ff6a00" />
      <stop offset="40%" stop-color="#ff4458" />
      <stop offset="100%" stop-color="#aa1122" stop-opacity="0.6" />
    </radialGradient>
    <linearGradient id="d-body" x1="50" y1="2" x2="50" y2="98" gradientUnits="userSpaceOnUse">
      <stop offset="0%" stop-color="#1a0812" />
      <stop offset="100%" stop-color="#060308" />
    </linearGradient>
    <linearGradient id="d-stroke" x1="0" y1="0" x2="100" y2="100" gradientUnits="userSpaceOnUse">
      <stop offset="0%" stop-color="#ff4458" />
      <stop offset="55%" stop-color="#00d9ff" />
      <stop offset="100%" stop-color="#ff4458" />
    </linearGradient>
  </defs>
  <polygon points="30,28 22,6 38,22" fill="#ff4458" opacity="0.85" />
  <polygon points="70,28 78,6 62,22" fill="#ff4458" opacity="0.85" />
  <polygon points="30,28 70,28 84,40 88,60 76,80 62,92 50,96 38,92 24,80 12,60 16,40" fill="url(#d-body)" stroke="url(#d-stroke)" stroke-width="1.8" />
  <line x1="22" y1="46" x2="44" y2="53" stroke="#ff4458" stroke-width="2.5" stroke-linecap="round" />
  <line x1="78" y1="46" x2="56" y2="53" stroke="#ff4458" stroke-width="2.5" stroke-linecap="round" />
  <ellipse cx="50" cy="62" rx="22" ry="11" fill="#050208" />
  <ellipse cx="50" cy="62" rx="14" ry="8" fill="url(#d-eye)" />
  <ellipse cx="50" cy="62" rx="3.5" ry="7.5" fill="#000" />
  <ellipse cx="46" cy="58" rx="2" ry="1.2" fill="white" fill-opacity="0.35" />
  <line x1="44" y1="81" x2="50" y2="86" stroke="#ff4458" stroke-width="1.2" stroke-linecap="round" stroke-opacity="0.55" />
  <line x1="56" y1="81" x2="50" y2="86" stroke="#ff4458" stroke-width="1.2" stroke-linecap="round" stroke-opacity="0.55" />
</svg>
