<svg xmlns="http://www.w3.org/2000/svg" viewBox="0 0 900 720" font-family="'Segoe UI', system-ui, -apple-system, sans-serif">
  <defs>
    <linearGradient id="bg" x1="0" y1="0" x2="0" y2="1">
      <stop offset="0%" stop-color="#0d1117"/>
      <stop offset="100%" stop-color="#161b22"/>
    </linearGradient>
  </defs>

  <rect width="900" height="720" fill="url(#bg)" rx="12"/>

  <text x="450" y="36" text-anchor="middle" fill="#e6edf3" font-size="18" font-weight="700">14-Layer Security Architecture</text>

  <g transform="translate(40, 52)">
    <rect x="0" y="0" width="820" height="36" rx="6" fill="#1a2332" stroke="#f85149" stroke-width="1.2"/>
    <text x="12" y="23" fill="#f85149" font-size="11" font-weight="700">LAYER 1</text>
    <text x="90" y="23" fill="#e6edf3" font-size="12" font-weight="600">Permission Tiers</text>
    <text x="808" y="23" text-anchor="end" fill="#8b949e" font-size="11">minimal · standard · full</text>

    <rect x="0" y="40" width="820" height="36" rx="6" fill="#1a2332" stroke="#f0883e" stroke-width="1.2"/>
    <text x="12" y="63" fill="#f0883e" font-size="11" font-weight="700">LAYER 2</text>
    <text x="90" y="63" fill="#e6edf3" font-size="12" font-weight="600">Filesystem Sandbox</text>
    <text x="808" y="63" text-anchor="end" fill="#8b949e" font-size="11">ALLOWED_PATHS · BLOCKED_PATHS · command path scanning</text>

    <rect x="0" y="80" width="820" height="36" rx="6" fill="#1a2332" stroke="#d29922" stroke-width="1.2"/>
    <text x="12" y="103" fill="#d29922" font-size="11" font-weight="700">LAYER 3</text>
    <text x="90" y="103" fill="#e6edf3" font-size="12" font-weight="600">Secret Vault</text>
    <text x="808" y="103" text-anchor="end" fill="#8b949e" font-size="11">AES-256-GCM · scrypt · passphrase on start</text>

    <rect x="0" y="120" width="820" height="36" rx="6" fill="#1a2332" stroke="#3fb950" stroke-width="1.2"/>
    <text x="12" y="143" fill="#3fb950" font-size="11" font-weight="700">LAYER 4</text>
    <text x="90" y="143" fill="#e6edf3" font-size="12" font-weight="600">Channel Allowlists</text>
    <text x="808" y="143" text-anchor="end" fill="#8b949e" font-size="11">per-channel user ID whitelist</text>

    <rect x="0" y="160" width="820" height="36" rx="6" fill="#1a2332" stroke="#58a6ff" stroke-width="1.2"/>
    <text x="12" y="183" fill="#58a6ff" font-size="11" font-weight="700">LAYER 5</text>
    <text x="90" y="183" fill="#e6edf3" font-size="12" font-weight="600">Subprocess Env Isolation</text>
    <text x="808" y="183" text-anchor="end" fill="#8b949e" font-size="11">secrets stripped from shell + MCP child env</text>

    <rect x="0" y="200" width="820" height="36" rx="6" fill="#1a2332" stroke="#2f81f7" stroke-width="1.2"/>
    <text x="12" y="223" fill="#2f81f7" font-size="11" font-weight="700">LAYER 6</text>
    <text x="90" y="223" fill="#e6edf3" font-size="12" font-weight="600">Command Guard</text>
    <text x="808" y="223" text-anchor="end" fill="#8b949e" font-size="11">blocks env dumps · .env reads · credential exfil</text>

    <rect x="0" y="240" width="820" height="36" rx="6" fill="#1a2332" stroke="#8957e5" stroke-width="1.2"/>
    <text x="12" y="263" fill="#8957e5" font-size="11" font-weight="700">LAYER 7</text>
    <text x="90" y="263" fill="#e6edf3" font-size="12" font-weight="600">Secret Redaction</text>
    <text x="808" y="263" text-anchor="end" fill="#8b949e" font-size="11">pattern + blind env redaction · live refresh on unlock</text>

    <rect x="0" y="280" width="820" height="36" rx="6" fill="#1a2332" stroke="#d2a8ff" stroke-width="1.2"/>
    <text x="12" y="303" fill="#d2a8ff" font-size="11" font-weight="700">LAYER 8</text>
    <text x="90" y="303" fill="#e6edf3" font-size="12" font-weight="600">Log Sanitisation</text>
    <text x="808" y="303" text-anchor="end" fill="#8b949e" font-size="11">params + output redacted before logging</text>

    <rect x="0" y="320" width="820" height="36" rx="6" fill="#1a2332" stroke="#f85149" stroke-width="1.2"/>
    <text x="12" y="343" fill="#f85149" font-size="11" font-weight="700">LAYER 9</text>
    <text x="90" y="343" fill="#e6edf3" font-size="12" font-weight="600">Network Egress Guard</text>
    <text x="808" y="343" text-anchor="end" fill="#8b949e" font-size="11">blocks outbound requests containing secrets</text>

    <rect x="0" y="360" width="820" height="36" rx="6" fill="#1a2332" stroke="#3fb950" stroke-width="1.2"/>
    <text x="12" y="383" fill="#3fb950" font-size="11" font-weight="700">LAYER 10</text>
    <text x="100" y="383" fill="#e6edf3" font-size="12" font-weight="600">Plugin Isolation</text>
    <text x="808" y="383" text-anchor="end" fill="#8b949e" font-size="11">crew plugins sandboxed from host secrets</text>

    <rect x="0" y="400" width="820" height="36" rx="6" fill="#1a2332" stroke="#58a6ff" stroke-width="1.2"/>
    <text x="12" y="423" fill="#58a6ff" font-size="11" font-weight="700">LAYER 11</text>
    <text x="100" y="423" fill="#e6edf3" font-size="12" font-weight="600">A2A Security</text>
    <text x="808" y="423" text-anchor="end" fill="#8b949e" font-size="11">bearer token · agent allowlist · rate limiting</text>

    <rect x="0" y="440" width="820" height="36" rx="6" fill="#1a2332" stroke="#f0883e" stroke-width="1.2"/>
    <text x="12" y="463" fill="#f0883e" font-size="11" font-weight="700">LAYER 12</text>
    <text x="100" y="463" fill="#e6edf3" font-size="12" font-weight="600">Supervisor Agent</text>
    <text x="808" y="463" text-anchor="end" fill="#8b949e" font-size="11">runaway loops · cost overruns · dangerous patterns</text>

    <rect x="0" y="480" width="820" height="36" rx="6" fill="#1a2332" stroke="#d29922" stroke-width="1.2"/>
    <text x="12" y="503" fill="#d29922" font-size="11" font-weight="700">LAYER 13</text>
    <text x="100" y="503" fill="#e6edf3" font-size="12" font-weight="600">Input Sanitisation</text>
    <text x="808" y="503" text-anchor="end" fill="#8b949e" font-size="11">untrusted-input wrapping · injection detection</text>

    <rect x="0" y="520" width="820" height="36" rx="6" fill="#1a2332" stroke="#8957e5" stroke-width="1.2"/>
    <text x="12" y="543" fill="#8957e5" font-size="11" font-weight="700">LAYER 14</text>
    <text x="100" y="543" fill="#e6edf3" font-size="12" font-weight="600">Secret Access Audit</text>
    <text x="808" y="543" text-anchor="end" fill="#8b949e" font-size="11">every key read logged · caller + timestamp</text>
  </g>
</svg>
