<svg xmlns="http://www.w3.org/2000/svg" viewBox="0 0 880 420" font-family="'Segoe UI', system-ui, -apple-system, sans-serif">
  <defs>
    <linearGradient id="bg" x1="0" y1="0" x2="0" y2="1">
      <stop offset="0%" stop-color="#0d1117"/>
      <stop offset="100%" stop-color="#161b22"/>
    </linearGradient>
    <marker id="arr" markerWidth="8" markerHeight="6" refX="8" refY="3" orient="auto"><path d="M0,0 L8,3 L0,6" fill="#58a6ff"/></marker>
    <marker id="arrG" markerWidth="8" markerHeight="6" refX="8" refY="3" orient="auto"><path d="M0,0 L8,3 L0,6" fill="#3fb950"/></marker>
    <marker id="arrO" markerWidth="8" markerHeight="6" refX="8" refY="3" orient="auto"><path d="M0,0 L8,3 L0,6" fill="#f0883e"/></marker>
    <marker id="arrP" markerWidth="8" markerHeight="6" refX="8" refY="3" orient="auto"><path d="M0,0 L8,3 L0,6" fill="#8957e5"/></marker>
  </defs>

  <rect width="880" height="420" fill="url(#bg)" rx="12"/>

  <text x="440" y="34" text-anchor="middle" fill="#e6edf3" font-size="18" font-weight="700">Task Lifecycle - Message to Response</text>

  <!-- Nodes -->
  <!-- User -->
  <circle cx="60" cy="200" r="28" fill="#1a2332" stroke="#58a6ff" stroke-width="1.5"/>
  <text x="60" y="196" text-anchor="middle" fill="#58a6ff" font-size="10" font-weight="700">User</text>
  <text x="60" y="210" text-anchor="middle" fill="#8b949e" font-size="9">(Telegram)</text>

  <!-- Channel -->
  <rect x="120" y="174" width="90" height="52" rx="8" fill="#1a2332" stroke="#2f81f7" stroke-width="1.5"/>
  <text x="165" y="204" text-anchor="middle" fill="#2f81f7" font-size="12" font-weight="600">Channel</text>

  <!-- TaskQueue -->
  <rect x="245" y="174" width="100" height="52" rx="8" fill="#1a2332" stroke="#3fb950" stroke-width="1.5"/>
  <text x="295" y="204" text-anchor="middle" fill="#3fb950" font-size="12" font-weight="600">TaskQueue</text>

  <!-- TenantContext -->
  <rect x="380" y="174" width="110" height="52" rx="8" fill="#1a2332" stroke="#8957e5" stroke-width="1.5"/>
  <text x="435" y="198" text-anchor="middle" fill="#8957e5" font-size="11" font-weight="600">Tenant</text>
  <text x="435" y="214" text-anchor="middle" fill="#8957e5" font-size="11" font-weight="600">Context</text>

  <!-- AgentLoop -->
  <rect x="525" y="174" width="100" height="52" rx="8" fill="#1a2332" stroke="#58a6ff" stroke-width="1.5"/>
  <text x="575" y="204" text-anchor="middle" fill="#58a6ff" font-size="12" font-weight="600">AgentLoop</text>

  <!-- Tools -->
  <rect x="665" y="120" width="80" height="44" rx="8" fill="#1a2332" stroke="#f0883e" stroke-width="1.5"/>
  <text x="705" y="146" text-anchor="middle" fill="#f0883e" font-size="12" font-weight="600">Tools</text>

  <!-- MCP -->
  <rect x="665" y="236" width="80" height="44" rx="8" fill="#1a2332" stroke="#3fb950" stroke-width="1.5"/>
  <text x="705" y="262" text-anchor="middle" fill="#3fb950" font-size="12" font-weight="600">MCP</text>

  <!-- Arrows -->
  <line x1="88" y1="200" x2="118" y2="200" stroke="#58a6ff" stroke-width="1.5" marker-end="url(#arr)"/>
  <line x1="210" y1="200" x2="243" y2="200" stroke="#2f81f7" stroke-width="1.5" marker-end="url(#arr)"/>
  <line x1="345" y1="200" x2="378" y2="200" stroke="#3fb950" stroke-width="1.5" marker-end="url(#arrG)"/>
  <line x1="490" y1="200" x2="523" y2="200" stroke="#8957e5" stroke-width="1.5" marker-end="url(#arrP)"/>
  <line x1="625" y1="185" x2="663" y2="150" stroke="#f0883e" stroke-width="1.5" marker-end="url(#arrO)"/>
  <line x1="625" y1="215" x2="663" y2="252" stroke="#3fb950" stroke-width="1.5" marker-end="url(#arrG)"/>

  <!-- Return arrows (dashed) -->
  <line x1="705" y1="120" x2="575" y2="82" stroke="#f0883e" stroke-width="1" stroke-dasharray="4,3"/>
  <line x1="705" y1="280" x2="575" y2="310" stroke="#3fb950" stroke-width="1" stroke-dasharray="4,3"/>

  <!-- Loop back to user -->
  <path d="M 525,226 L 525,340 L 60,340 L 60,228" fill="none" stroke="#3fb950" stroke-width="1.5" stroke-dasharray="6,3" marker-end="url(#arrG)"/>

  <!-- Labels on arrows -->
  <text x="105" y="162" text-anchor="middle" fill="#8b949e" font-size="9">"Fix the auth bug"</text>
  <text x="228" y="168" text-anchor="middle" fill="#8b949e" font-size="9">enqueue</text>
  <text x="365" y="168" text-anchor="middle" fill="#8b949e" font-size="9">run</text>
  <text x="510" y="168" text-anchor="middle" fill="#8b949e" font-size="9">loop</text>
  <text x="640" y="130" text-anchor="middle" fill="#8b949e" font-size="9">readFile, editFile</text>
  <text x="640" y="246" text-anchor="middle" fill="#8b949e" font-size="9">useMCP(github)</text>

  <!-- Result label -->
  <text x="290" y="358" text-anchor="middle" fill="#3fb950" font-size="11" font-weight="600">"Fixed auth bug, opened PR #42"</text>

  <!-- Steps legend -->
  <rect x="60" y="374" width="760" height="34" rx="6" fill="#1a2332" stroke="#30363d" stroke-width="1"/>
  <text x="440" y="396" text-anchor="middle" fill="#8b949e" font-size="11">Message → Channel → TaskQueue → TenantContext (isolation) → AgentLoop (tool calls) → Response</text>
</svg>